<svg xmlns="http://www.w3.org/2000/svg" width="44" height="44" viewBox="0 0 44 44"><defs><style>.cls-1{fill:#868e96;}</style></defs><title>icon-speed</title><g id="Слой_2" data-name="Слой 2"><g id="Слой_1-2" data-name="Слой 1"><g id="KDkZaR"><path class="cls-1" d="M20.71,0h2.58c.58.07,1.16.13,1.74.21A21.48,21.48,0,0,1,36.49,5.45a21.53,21.53,0,0,1,7.18,12.76c.14.83.23,1.66.34,2.5v2.58c-.07.56-.12,1.13-.2,1.69a21.54,21.54,0,0,1-5.3,11.57,21.54,21.54,0,0,1-12.7,7.11c-.83.15-1.67.23-2.5.34H20.71c-.58-.07-1.16-.13-1.74-.21A21.48,21.48,0,0,1,7.51,38.55,21.53,21.53,0,0,1,.34,25.79C.19,25,.11,24.12,0,23.29V20.71c.07-.56.12-1.13.2-1.69A21.54,21.54,0,0,1,5.5,7.45,21.54,21.54,0,0,1,18.21.34C19,.19,19.88.11,20.71,0ZM22,1.47A20.53,20.53,0,1,0,42.53,22,20.57,20.57,0,0,0,22,1.47Z"/><path class="cls-1" d="M22,40.84A18.84,18.84,0,1,1,40.84,22,18.84,18.84,0,0,1,22,40.84Zm-6-35.15c.13.6.78,1.31-.13,1.68s-.94-.6-1.28-1.09a17,17,0,0,0-4.43,3,6,6,0,0,1,.55.46.74.74,0,1,1-1,1.05,6.36,6.36,0,0,1-.47-.56,17.11,17.11,0,0,0-3,4.45c.27.12.51.21.74.33a.73.73,0,0,1-.56,1.34c-.25-.08-.5-.19-.77-.29a17,17,0,0,0-1,5.2c.26,0,.47,0,.69,0,.53,0,.84.3.84.73s-.31.73-.86.76H4.65a16.89,16.89,0,0,0,1,5.2c.26-.1.46-.2.68-.27A.74.74,0,1,1,6.92,29l-.65.29a16.77,16.77,0,0,0,3,4.44,6.29,6.29,0,0,1,.51-.59.73.73,0,0,1,1,0,.73.73,0,0,1,0,1c-.16.19-.35.37-.52.55a17.22,17.22,0,0,0,23.45-.07,5.83,5.83,0,0,1-.55-.48.73.73,0,1,1,1-1,5.67,5.67,0,0,1,.51.6,17.21,17.21,0,0,0,3-4.46c-.27-.12-.53-.22-.76-.35a.71.71,0,0,1-.36-.94.72.72,0,0,1,.93-.39c.25.08.5.19.77.29a17.07,17.07,0,0,0,1-5.2c-.27,0-.5,0-.72,0-.52,0-.82-.32-.81-.76s.3-.69.8-.72c.24,0,.48,0,.73,0a16.87,16.87,0,0,0-1-5.2c-.26.1-.49.2-.72.28A.74.74,0,1,1,37,15c.23-.11.47-.2.71-.31a16.81,16.81,0,0,0-2.94-4.39c-.49.37-.9,1.19-1.58.53s.13-1.11.51-1.6a16.83,16.83,0,0,0-4.38-2.94c-.13.29-.24.57-.39.83a.68.68,0,0,1-.89.3.71.71,0,0,1-.42-.88c.08-.27.19-.53.3-.83a16.86,16.86,0,0,0-5.2-1c0,.24,0,.45,0,.66,0,.55-.3.87-.74.87s-.72-.32-.75-.87c0-.22,0-.44,0-.67A17.14,17.14,0,0,0,16.07,5.69Z"/><path class="cls-1" d="M9.46,21.73a12.54,12.54,0,0,1,24.49-3.56,12.29,12.29,0,0,1-.76,9.51c-.25.51-.66.69-1.07.48A.77.77,0,0,1,31.86,27a11.21,11.21,0,0,0,1.21-5.34,11.06,11.06,0,0,0-21.65-2.88,10.73,10.73,0,0,0,2.36,10.57c.14.16.29.32.42.49a.72.72,0,0,1-.06,1,.71.71,0,0,1-1,0,10,10,0,0,1-.87-1A12.81,12.81,0,0,1,9.46,21.73Z"/><path class="cls-1" d="M18.91,22a3.09,3.09,0,0,1,6.13-.6,1.6,1.6,0,0,0,.28.61q3.26,4.37,6.54,8.73a2.13,2.13,0,0,1,.24.36.69.69,0,0,1-.12.83.7.7,0,0,1-.86.14,2.28,2.28,0,0,1-.36-.24L22,25.31a1.6,1.6,0,0,0-.61-.28A3.09,3.09,0,0,1,18.91,22ZM22,23.62A1.62,1.62,0,1,0,20.38,22,1.65,1.65,0,0,0,22,23.62Zm1.75,1.12,3.7,2.77.07-.08-2.77-3.7Z"/></g></g></g></svg>