<svg xmlns="http://www.w3.org/2000/svg" width="40.96" height="20.56" viewBox="0 0 40.96 20.56"><defs><style>.cls-1{fill:#868e96;}</style></defs><title>icon-wrecker</title><g id="Слой_2" data-name="Слой 2"><g id="Слой_1-2" data-name="Слой 1"><path class="cls-1" d="M40.49,6.76v-.6a2.51,2.51,0,0,0-.87-1.9L35.89,1A2.52,2.52,0,0,0,34.25.41H25.38a2.53,2.53,0,0,0-1.52.51L20.21,3.7l-4.82.86a2.51,2.51,0,0,0-1.66,1.1l-.25.39A3,3,0,0,0,14,9.94l.34.3a2.8,2.8,0,0,0,1.86.71H17a3.3,3.3,0,0,0,1.1,1.21H12.43V.78A.78.78,0,0,0,11.65,0H3.24a.78.78,0,0,0-.75.57L0,9.64a.78.78,0,0,0,0,.2v6.21a.78.78,0,0,0,.78.78H3.1a3.28,3.28,0,1,0,6.49,0H22.78a3.28,3.28,0,1,0,6.49,0h1a3.28,3.28,0,1,0,6.49,0h1.32a.78.78,0,0,0,.78-.78V12.95a.78.78,0,0,0-.78-.78H36.6A3.3,3.3,0,0,0,37.7,11h.39a3,3,0,0,0,2.34-1.15,2.57,2.57,0,0,0,.07-3.05Zm-3.93-3.1H35L34.62,2a1,1,0,0,1,.26.16Zm-3.13,0H29.29L29.68,2H33ZM24.8,2.16a1,1,0,0,1,.58-.2h2.7L27.7,3.66H22.84ZM18.16,9.44a1.72,1.72,0,1,1,1.72,1.72,1.73,1.73,0,0,1-1.72-1.72ZM3.83,1.55h2.9V7.79l-4.87,1ZM6.34,19a1.72,1.72,0,1,1,1.72-1.72A1.73,1.73,0,0,1,6.34,19Zm0-5a3.27,3.27,0,0,0-2.59,1.27H1.55v-2.2H2.85a.78.78,0,0,0,0-1.55H1.55V10.47L7.67,9.18a.78.78,0,0,0,.62-.76V1.55h2.59V15.28H8.93A3.27,3.27,0,0,0,6.34,14ZM26,19a1.72,1.72,0,1,1,1.72-1.72A1.73,1.73,0,0,1,26,19Zm7.46,0a1.72,1.72,0,1,1,1.72-1.72A1.73,1.73,0,0,1,33.49,19Zm3.79-3.73h-1.2a3.27,3.27,0,0,0-5.18,0H28.62a3.27,3.27,0,0,0-5.18,0h-11V13.72H37.29ZM21.69,12.17A3.3,3.3,0,0,0,22.79,11h9.1A3.3,3.3,0,0,0,33,12.17ZM33.07,9.44a1.72,1.72,0,1,1,1.72,1.72,1.73,1.73,0,0,1-1.72-1.72Zm6.13-.58a1.41,1.41,0,0,1-1.11.54h0a3.28,3.28,0,0,0-6.56,0H23.16a3.28,3.28,0,0,0-6.55,0h-.4a1.25,1.25,0,0,1-.83-.32L15,8.78a1.46,1.46,0,0,1-.27-.32h.63a.78.78,0,1,0,0-1.55h-.63v0L15,6.51a1,1,0,0,1,.63-.42l4.94-.88H38.35l.25.22a1,1,0,0,1,.33.72V7a.78.78,0,0,0,.2.52,1,1,0,0,1,.06,1.3Zm0,0"/></g></g></svg>