<svg xmlns="http://www.w3.org/2000/svg" width="40.96" height="37.37" viewBox="0 0 40.96 37.37"><defs><style>.cls-1{fill:#868e96;}</style></defs><title>icon-comfort</title><g id="Слой_2" data-name="Слой 2"><g id="Слой_1-2" data-name="Слой 1"><path class="cls-1" d="M37,19.18l2.09-.25a2.07,2.07,0,0,0-.25-4.13H37.43a2.07,2.07,0,0,0-1.94,1.36l-2-4.46a5.92,5.92,0,0,0-4-3.3l-.27-.05a8.67,8.67,0,0,0-17.32,0l-.27.05a5.92,5.92,0,0,0-4,3.3l-2,4.46A2.07,2.07,0,0,0,3.53,14.8H2.07a2.07,2.07,0,0,0-.25,4.13l2.09.25-2,2A4.42,4.42,0,0,0,.67,24.91l.68,4.82a4.88,4.88,0,0,0,1.73,3.08V35a2.37,2.37,0,0,0,2.36,2.36H9.37A2.37,2.37,0,0,0,11.73,35V33.94H29.23V35a2.37,2.37,0,0,0,2.36,2.36h3.92A2.37,2.37,0,0,0,37.87,35V32.81a4.88,4.88,0,0,0,1.73-3.08l.68-4.82A4.42,4.42,0,0,0,39,21.18ZM34.76,32.37H6.2A3.34,3.34,0,0,1,2.94,29.7H38a3.34,3.34,0,0,1-3.26,2.67Zm-5.06-6.79.8,2.55H29.42l-.8-2.55Zm-2.73,0,.8,2.55H13.18l.8-2.55ZM11.54,28.13H10.46l.8-2.55h1.08Zm-2.73,0H2.71l-.36-2.55H9.61Zm23.33,0-.8-2.55h7.26l-.36,2.55Zm4.78-11.26a.5.5,0,0,1,.5-.5h1.46a.5.5,0,0,1,.06,1l-2,.24v-.74Zm-6.06-6c-.48-.08-1.13-.16-1.94-.22.05-.22.09-.45.13-.69h0a4.33,4.33,0,0,1,1.81.91ZM20.48,1.57a7.1,7.1,0,1,1-7.1,7.1,7.11,7.11,0,0,1,7.1-7.1ZM11.9,9.93h0c0,.23.08.46.13.68-.81.06-1.46.14-1.94.22a4.32,4.32,0,0,1,1.81-.91Zm-3.23,3a5.92,5.92,0,0,1,1.56-.53,21.7,21.7,0,0,1,2.31-.26,8.67,8.67,0,0,0,15.88,0,21.61,21.61,0,0,1,2.31.26,5.92,5.92,0,0,1,1.56.53l2.42,5.3H6.25Zm-7.1,3.94a.5.5,0,0,1,.5-.5H3.53a.5.5,0,0,1,.5.5v.74l-2-.24a.5.5,0,0,1-.44-.5ZM5.51,19.8H35.45l2.49,2.49A2.85,2.85,0,0,1,38.75,24H2.21A2.85,2.85,0,0,1,3,22.29ZM10.17,35a.8.8,0,0,1-.8.8H5.45a.8.8,0,0,1-.8-.8V33.68a4.83,4.83,0,0,0,1.54.25h4Zm26.14,0a.8.8,0,0,1-.8.8H31.59a.8.8,0,0,1-.8-.8V33.94h4a4.83,4.83,0,0,0,1.54-.25Zm0,0"/><path class="cls-1" d="M19.17,13.26a.78.78,0,0,0,.68.4h.08a.78.78,0,0,0,.67-.54l2.87-8.75A.78.78,0,0,0,22,3.89l-2.32,7.06L18.18,8.32a.78.78,0,1,0-1.37.77Zm0,0"/></g></g></svg>