<svg xmlns="http://www.w3.org/2000/svg" width="40.96" height="31.18" viewBox="0 0 40.96 31.18"><defs><style>.cls-1{fill:#868e96;}</style></defs><title>icon-wash</title><g id="Слой_2" data-name="Слой 2"><g id="Слой_1-2" data-name="Слой 1"><path class="cls-1" d="M32.72,16.4a.8.8,0,0,0-.8-.8H29.78L28.5,12.79a3.87,3.87,0,0,0-2.64-2.15,46.72,46.72,0,0,0-10.77,0,3.87,3.87,0,0,0-2.64,2.15L11.17,15.6H9A.8.8,0,0,0,9,17.2h1.28L9.2,18.33a3,3,0,0,0-.84,2.5l.41,2.87a3.24,3.24,0,0,0,1,1.94v1.15a1.75,1.75,0,0,0,1.74,1.74h2.33a1.75,1.75,0,0,0,1.74-1.74v-.29h9.73v.29a1.75,1.75,0,0,0,1.74,1.74h2.33a1.75,1.75,0,0,0,1.74-1.74V25.64a3.24,3.24,0,0,0,1-1.94l.41-2.87a3,3,0,0,0-.84-2.5L30.63,17.2h1.29a.8.8,0,0,0,.8-.8ZM29,24.88H12A1.65,1.65,0,0,1,10.51,24H30.44a1.65,1.65,0,0,1-1.47.91Zm-3.26-3.36.26.84H15l.26-.84Zm-12.42.84H10.2l-.12-.84h3.47Zm14.37,0-.26-.84h3.47l-.12.84ZM10,19.91a1.34,1.34,0,0,1,.29-.45l1.38-1.38H29.23l1.38,1.38a1.35,1.35,0,0,1,.29.45Zm3.88-6.46a2.25,2.25,0,0,1,1.53-1.25,46.15,46.15,0,0,1,10.05,0A2.25,2.25,0,0,1,27,13.45l1.38,3H12.54ZM14,26.79a.14.14,0,0,1-.14.14H11.54a.14.14,0,0,1-.14-.14v-.35a3.19,3.19,0,0,0,.58.05h2Zm15.54,0a.14.14,0,0,1-.14.14H27.08a.14.14,0,0,1-.14-.14v-.29h2a3.18,3.18,0,0,0,.58-.05Zm0,0"/><path class="cls-1" d="M6.83,10.62l-2.34-.8V7.48a.8.8,0,1,0-1.61,0v1.8L1.06,8.65a.8.8,0,0,0-.52,1.52l5.77,2a.8.8,0,1,0,.52-1.52Zm0,0"/><path class="cls-1" d="M6.83,22.88l-5.77-2a.8.8,0,0,0-.52,1.52l5.77,2a.8.8,0,1,0,.52-1.52Zm0,0"/><path class="cls-1" d="M6.83,25.33l-5.77-2a.8.8,0,0,0-.52,1.52l5.77,2a.8.8,0,0,0,.52-1.52Zm0,0"/><path class="cls-1" d="M6.83,27.79l-5.77-2a.8.8,0,1,0-.52,1.52l2.34.8v2.24a.8.8,0,1,0,1.61,0V28.69l1.82.62a.8.8,0,1,0,.52-1.52Zm0,0"/><path class="cls-1" d="M6.83,13.07l-5.77-2a.8.8,0,0,0-.52,1.52l5.77,2a.79.79,0,0,0,.26,0,.8.8,0,0,0,.26-1.57Zm0,0"/><path class="cls-1" d="M6.83,15.52l-5.77-2a.8.8,0,0,0-.52,1.52l5.77,2a.8.8,0,1,0,.52-1.52Zm0,0"/><path class="cls-1" d="M6.83,18,1.06,16a.8.8,0,0,0-.52,1.52l5.77,2A.8.8,0,1,0,6.83,18Zm0,0"/><path class="cls-1" d="M6.83,20.43l-5.77-2A.8.8,0,0,0,.54,20l5.77,2a.8.8,0,1,0,.52-1.52Zm0,0"/><path class="cls-1" d="M34.13,10.62a.8.8,0,1,0,.52,1.52l5.77-2a.8.8,0,0,0-.52-1.52l-1.82.62V7.48a.8.8,0,1,0-1.61,0V9.82Zm0,0"/><path class="cls-1" d="M39.9,20.91l-5.77,2a.8.8,0,1,0,.52,1.52l5.77-2a.8.8,0,0,0-.52-1.52Zm0,0"/><path class="cls-1" d="M39.9,23.37l-5.77,2a.8.8,0,1,0,.52,1.52l5.77-2a.8.8,0,0,0-.52-1.52Zm0,0"/><path class="cls-1" d="M39.9,25.82l-5.77,2a.8.8,0,1,0,.52,1.52l1.82-.62v1.69a.8.8,0,0,0,1.61,0V28.14l2.34-.8a.8.8,0,1,0-.52-1.52Zm0,0"/><path class="cls-1" d="M39.9,11.11l-5.77,2a.8.8,0,1,0,.52,1.52l5.77-2a.8.8,0,0,0-.52-1.52Zm0,0"/><path class="cls-1" d="M39.9,13.56l-5.77,2A.8.8,0,1,0,34.65,17l5.77-2a.8.8,0,0,0-.52-1.52Zm0,0"/><path class="cls-1" d="M39.9,16l-5.77,2a.8.8,0,0,0,.52,1.52l5.77-2A.8.8,0,0,0,39.9,16Zm0,0"/><path class="cls-1" d="M39.9,18.46l-5.77,2A.8.8,0,1,0,34.65,22l5.77-2a.8.8,0,0,0-.52-1.52Zm0,0"/><path class="cls-1" d="M32.64,4.49h1.69a.8.8,0,0,0,0-1.61H32.09L31.29.55a.8.8,0,1,0-1.52.52l2,5.77a.8.8,0,0,0,1.52-.52Zm0,0"/><path class="cls-1" d="M29.28,6.83a.8.8,0,1,0,1.52-.52l-2-5.77a.8.8,0,1,0-1.52.52Zm0,0"/><path class="cls-1" d="M26.83,6.83a.8.8,0,1,0,1.52-.52l-2-5.77a.8.8,0,1,0-1.52.52Zm0,0"/><path class="cls-1" d="M14.57,6.83a.8.8,0,1,0,1.52-.52l-2-5.77a.8.8,0,1,0-1.52.52Zm0,0"/><path class="cls-1" d="M12.12,6.83a.8.8,0,1,0,1.52-.52l-2-5.77a.8.8,0,1,0-1.52.52Zm0,0"/><path class="cls-1" d="M24.38,6.83a.8.8,0,1,0,1.52-.52l-2-5.77a.8.8,0,1,0-1.52.52Zm0,0"/><path class="cls-1" d="M21.93,6.83a.8.8,0,0,0,1.52-.52l-2-5.77A.8.8,0,1,0,20,1.06Zm0,0"/><path class="cls-1" d="M19.48,6.83A.8.8,0,1,0,21,6.31L19,.55a.8.8,0,1,0-1.52.52Zm0,0"/><path class="cls-1" d="M17,6.83a.8.8,0,1,0,1.52-.52l-2-5.77a.8.8,0,1,0-1.52.52Zm0,0"/><path class="cls-1" d="M6.63,4.49H8.87l.8,2.34a.8.8,0,1,0,1.52-.52L9.22.55a.8.8,0,1,0-1.52.52l.62,1.82H6.63a.8.8,0,1,0,0,1.61Zm0,0"/></g></g></svg>