<svg xmlns="http://www.w3.org/2000/svg" width="53.93" height="53.57" viewBox="0 0 53.93 53.57"><defs><style>.cls-1-3{fill:#868e96;}</style></defs><title>case</title><g id="Слой_2" data-name="Слой 2"><g id="Слой_1-2" data-name="Слой 1"><path class="cls-1-3" d="M23.25,22.73a7.6,7.6,0,1,0,7.6,7.6,7.6,7.6,0,0,0-7.6-7.6Zm0,13a5.43,5.43,0,1,1,5.43-5.43,5.43,5.43,0,0,1-5.43,5.43Zm0,0"/><path class="cls-1-3" d="M23.25,19.32a11,11,0,1,0,11,11,11,11,0,0,0-11-11Zm0,19.84a8.83,8.83,0,1,1,8.83-8.83,8.84,8.84,0,0,1-8.83,8.83Zm0,0"/><path class="cls-1-3" d="M52.85,12.87H50.43a14.21,14.21,0,0,0-.95-2.29l1.71-1.71a1.08,1.08,0,0,0,0-1.53l-4.6-4.6a1.08,1.08,0,0,0-1.53,0L43.35,4.45a14.29,14.29,0,0,0-2.29-.95V1.08A1.08,1.08,0,0,0,40,0H33.47a1.08,1.08,0,0,0-1.08,1.08V3.5a14.3,14.3,0,0,0-2.29.95L28.39,2.74a1.08,1.08,0,0,0-1.53,0L22.52,7.07H20A1.08,1.08,0,0,0,19,8.15V11c-.55.12-1.1.27-1.63.44L15.89,9a1.08,1.08,0,0,0-1.48-.4L8.85,11.79a1.08,1.08,0,0,0-.4,1.48l1.44,2.5Q9.27,16.34,8.7,17L6.2,15.52a1.08,1.08,0,0,0-1.48.4L1.51,21.47A1.09,1.09,0,0,0,1.91,23L4.4,24.4c-.17.54-.31,1.08-.44,1.63H1.08A1.08,1.08,0,0,0,0,27.11v6.42a1.08,1.08,0,0,0,1.08,1.08H4c.12.55.27,1.1.44,1.63l-2.5,1.44a1.08,1.08,0,0,0-.4,1.48l3.21,5.56a1.08,1.08,0,0,0,1.48.4l2.5-1.44c.38.41.78.81,1.19,1.19l-1.44,2.5a1.09,1.09,0,0,0,.4,1.48l5.56,3.21a1.08,1.08,0,0,0,1.48-.4l1.44-2.5q.8.25,1.63.44v2.88A1.08,1.08,0,0,0,20,53.57h6.42a1.08,1.08,0,0,0,1.08-1.08V49.61c.55-.12,1.1-.27,1.63-.44l1.44,2.5a1.08,1.08,0,0,0,1.48.4l5.56-3.21a1.08,1.08,0,0,0,.4-1.48l-1.44-2.5q.62-.57,1.19-1.19l2.5,1.44a1.08,1.08,0,0,0,1.48-.4L45,39.17a1.09,1.09,0,0,0-.4-1.48l-2.5-1.44c.17-.54.31-1.08.44-1.63h2.89a1.08,1.08,0,0,0,1.08-1.08V31.76l.09-.08,4.6-4.6a1.08,1.08,0,0,0,0-1.53l-1.71-1.71a14.23,14.23,0,0,0,.95-2.29h2.42a1.08,1.08,0,0,0,1.08-1.08V14a1.08,1.08,0,0,0-1.08-1.08ZM44.34,32.45H41.64a1.08,1.08,0,0,0-1.07.9,17.59,17.59,0,0,1-.81,3,1.08,1.08,0,0,0,.48,1.31L42.57,39,40.45,42.7l-2.33-1.35a1.09,1.09,0,0,0-1.37.24,17.74,17.74,0,0,1-2.21,2.21,1.08,1.08,0,0,0-.24,1.37l1.35,2.33L32,49.64l-1.34-2.33a1.08,1.08,0,0,0-1.31-.48,17.5,17.5,0,0,1-3,.81,1.08,1.08,0,0,0-.9,1.07v2.69H21.13V48.71a1.08,1.08,0,0,0-.9-1.07,17.51,17.51,0,0,1-3-.81,1.08,1.08,0,0,0-1.31.48l-1.34,2.33-3.68-2.12,1.35-2.33A1.08,1.08,0,0,0,12,43.81,17.74,17.74,0,0,1,9.76,41.6a1.08,1.08,0,0,0-1.37-.24L6.06,42.7,3.93,39l2.33-1.34a1.08,1.08,0,0,0,.48-1.31,17.51,17.51,0,0,1-.81-3,1.08,1.08,0,0,0-1.07-.9H2.17V28.2H4.86a1.08,1.08,0,0,0,1.07-.9,17.5,17.5,0,0,1,.81-3A1.08,1.08,0,0,0,6.26,23L3.93,21.62l2.12-3.68,2.33,1.35A1.08,1.08,0,0,0,9.76,19,17.8,17.8,0,0,1,12,16.83a1.08,1.08,0,0,0,.24-1.37l-1.35-2.33L14.55,11l1.34,2.33a1.08,1.08,0,0,0,1.31.48,17.56,17.56,0,0,1,3-.81,1.08,1.08,0,0,0,.9-1.07V9.24h4.25v2.69a1.08,1.08,0,0,0,.9,1.07,17.55,17.55,0,0,1,3,.81,1.08,1.08,0,0,0,1.31-.48L32,11l3.68,2.12-1.35,2.33a1.08,1.08,0,0,0,.24,1.37A17.77,17.77,0,0,1,36.74,19a1.08,1.08,0,0,0,1.37.24l2.33-1.35,2.12,3.68L40.25,23a1.08,1.08,0,0,0-.48,1.31,17.58,17.58,0,0,1,.81,3,1.08,1.08,0,0,0,1.07.9h2.69Zm7.43-13.07H49.61a1.08,1.08,0,0,0-1.05.82,12.11,12.11,0,0,1-1.35,3.27,1.08,1.08,0,0,0,.16,1.32l1.52,1.52L46.5,28.7V27.11A1.08,1.08,0,0,0,45.42,26H42.54c-.12-.55-.27-1.1-.44-1.63L44.6,23a1.09,1.09,0,0,0,.4-1.48l-3.21-5.56a1.08,1.08,0,0,0-1.48-.4L37.8,17q-.57-.62-1.19-1.19l1.44-2.5a1.08,1.08,0,0,0-.4-1.48L32.1,8.58a1.09,1.09,0,0,0-1.48.4l-1.44,2.5q-.8-.25-1.63-.44V8.15a1.08,1.08,0,0,0-1.08-1.08h-.87l2-2,1.52,1.52a1.08,1.08,0,0,0,1.32.16,12.15,12.15,0,0,1,3.27-1.35,1.08,1.08,0,0,0,.82-1.05V2.17h4.34V4.32a1.08,1.08,0,0,0,.82,1.05A12.14,12.14,0,0,1,43,6.73a1.08,1.08,0,0,0,1.32-.16L45.83,5l3.07,3.07L47.37,9.63A1.08,1.08,0,0,0,47.21,11a12.11,12.11,0,0,1,1.35,3.27,1.08,1.08,0,0,0,1.05.82h2.15Zm0,0"/></g></g></svg>