<svg xmlns="http://www.w3.org/2000/svg" width="38" height="30.64" viewBox="0 0 38 30.64"><defs><style>.cls-1{fill:#868e96;}.cls-2{fill:none;stroke:#868e96;stroke-miterlimit:10;stroke-width:2px;}</style></defs><title>icon-bag</title><g id="Слой_2" data-name="Слой 2"><g id="Слой_1-2" data-name="Слой 1"><path class="cls-1" d="M36,7.64v4H2v-4H36m0-2H2a2,2,0,0,0-2,2v4a2,2,0,0,0,2,2H36a2,2,0,0,0,2-2v-4a2,2,0,0,0-2-2Z"/><path class="cls-1" d="M34,13.64v15H5v-15H34m0-2H5a2,2,0,0,0-2,2v15a2,2,0,0,0,2,2H34a2,2,0,0,0,2-2v-15a2,2,0,0,0-2-2Z"/><line class="cls-2" x1="19.13" y1="9.96" x2="28.38" y2="0.71"/><path class="cls-1" d="M8.88,19.64a1.5,1.5,0,0,0,0-3,1.5,1.5,0,0,0,0,3Z"/><path class="cls-1" d="M14.88,19.64a1.5,1.5,0,0,0,0-3,1.5,1.5,0,0,0,0,3Z"/><path class="cls-1" d="M8.88,25.39a1.5,1.5,0,0,0,0-3,1.5,1.5,0,0,0,0,3Z"/><path class="cls-1" d="M14.88,25.39a1.5,1.5,0,0,0,0-3,1.5,1.5,0,0,0,0,3Z"/><path class="cls-1" d="M24.13,19.64a1.5,1.5,0,0,0,0-3,1.5,1.5,0,0,0,0,3Z"/><path class="cls-1" d="M30.13,19.64a1.5,1.5,0,0,0,0-3,1.5,1.5,0,0,0,0,3Z"/><path class="cls-1" d="M24.13,25.39a1.5,1.5,0,0,0,0-3,1.5,1.5,0,0,0,0,3Z"/><path class="cls-1" d="M30.13,25.39a1.5,1.5,0,0,0,0-3,1.5,1.5,0,0,0,0,3Z"/></g></g></svg>